<?xml version="1.0" encoding="UTF-8" standalone="no"?>
<svg
   xmlns:dc="http://purl.org/dc/elements/1.1/"
   xmlns:cc="http://creativecommons.org/ns#"
   xmlns:rdf="http://www.w3.org/1999/02/22-rdf-syntax-ns#"
   xmlns:svg="http://www.w3.org/2000/svg"
   xmlns="http://www.w3.org/2000/svg"
   id="svg8"
   version="1.1"
   viewBox="0 0 210 297"
   height="297mm"
   width="210mm">
  <defs
     id="defs2" />
  <metadata
     id="metadata5">
    <rdf:RDF>
      <cc:Work
         rdf:about="">
        <dc:format>image/svg+xml</dc:format>
        <dc:type
           rdf:resource="http://purl.org/dc/dcmitype/StillImage" />
        <dc:title></dc:title>
      </cc:Work>
    </rdf:RDF>
  </metadata>
  <g
     id="layer1">
    <g
       id="g817">
      <path
         style="fill:#353564;fill-rule:evenodd;stroke:none;stroke-linejoin:round"
         points="52.916667,173.42857 70.493392,170.63921 70.493392,109.85683 52.916667,104.98809 "
         d="m 52.916667,104.98809 v 68.44048 l 17.576725,-2.78936 v -60.78238 z"
         id="path819" />
      <path
         style="fill:#afafde;fill-rule:evenodd;stroke:none;stroke-linejoin:round"
         points="132.29167,210.82143 150.90532,195.89344 70.493392,170.63921 52.916667,173.42857 "
         d="m 52.916667,173.42857 79.375003,37.39286 18.61365,-14.92799 -80.411928,-25.25423 z"
         id="path827" />
      <path
         style="fill:#e9e9ff;fill-rule:evenodd;stroke:none;stroke-linejoin:round"
         points="150.90532,65.776491 150.90532,195.89344 70.493392,170.63921 70.493392,109.85683 "
         d="M 70.493392,109.85683 150.90532,65.776491 V 195.89344 L 70.493392,170.63921 Z"
         id="path829" />
      <path
         style="fill:#4d4d9f;fill-rule:evenodd;stroke:none;stroke-linejoin:round"
         points="132.29167,39.720227 150.90532,65.776491 70.493392,109.85683 52.916667,104.98809 "
         d="M 52.916667,104.98809 132.29167,39.720227 150.90532,65.776491 70.493392,109.85683 Z"
         id="path821" />
      <path
         style="fill:#d7d7ff;fill-rule:evenodd;stroke:none;stroke-linejoin:round"
         points="132.29167,210.82143 150.90532,195.89344 150.90532,65.776491 132.29167,39.720227 "
         d="M 132.29167,39.720227 V 210.82143 l 18.61365,-14.92799 V 65.776491 Z"
         id="path825" />
      <path
         style="fill:#8686bf;fill-rule:evenodd;stroke:none;stroke-linejoin:round"
         points="132.29167,39.720227 132.29167,210.82143 52.916667,173.42857 52.916667,104.98809 "
         d="M 52.916667,104.98809 132.29167,39.720227 V 210.82143 L 52.916667,173.42857 Z"
         id="path823" />
    </g>
  </g>
</svg>
